<svg xmlns="http://www.w3.org/2000/svg" width="960" height="440" viewBox="0 0 960 440"><rect width="960" height="440" rx="16" fill="#1c292b"/><g font-family="sans-serif" font-size="17" fill="#e8efea"><text x="30" y="38" font-size="22">Two MPU6050s · shared I²C bus · ESP32 DevKit</text><g fill="#283b3a" stroke="#718e78"><rect x="35" y="90" width="225" height="300" rx="10"/><rect x="660" y="80" width="260" height="150" rx="10"/><rect x="660" y="260" width="260" height="150" rx="10"/></g><text x="58" y="122">ESP32 (classic)</text><text x="680" y="110">Bicep · address 0x68</text><text x="680" y="290">Forearm · address 0x69</text><text x="60" y="175">3V3</text><text x="60" y="225">GND</text><text x="60" y="275">GPIO21 / SDA</text><text x="60" y="325">GPIO22 / SCL</text><g font-size="14"><text x="680" y="142">VCC</text><text x="680" y="164">GND + AD0</text><text x="680" y="186">SDA</text><text x="680" y="208">SCL</text><text x="680" y="322">VCC + AD0</text><text x="680" y="344">GND</text><text x="680" y="366">SDA</text><text x="680" y="388">SCL</text></g><g fill="none" stroke-width="3"><path d="M250 170H340V138H660M340 170V318H660" stroke="#f3b975"/><path d="M250 220H390V160H660M390 220V340H660" stroke="#c2c9c6"/><path d="M250 270H450V182H660M450 270V362H660" stroke="#cdf68e"/><path d="M250 320H510V204H660M510 320V384H660" stroke="#8cdae0"/></g><text x="280" y="422" font-size="13" fill="#aabbaf">INT, XDA, XCL unused · common ground · use 3.3 V logic only</text></g></svg>
